<svg width="14" height="14" viewBox="0 0 14 14" fill="none" xmlns="http://www.w3.org/2000/svg">
<path d="M7 0.4875C7.13592 0.4875 7.26628 0.541495 7.36239 0.637608C7.4585 0.73372 7.5125 0.864077 7.5125 1C7.5125 1.13592 7.4585 1.26628 7.36239 1.36239C7.26628 1.4585 7.13592 1.5125 7 1.5125C5.54462 1.5125 4.14886 2.09065 3.11975 3.11975C2.09065 4.14886 1.5125 5.54462 1.5125 7C1.5125 8.45538 2.09065 9.85114 3.11975 10.8802C4.14886 11.9094 5.54462 12.4875 7 12.4875C7.13592 12.4875 7.26628 12.5415 7.36239 12.6376C7.4585 12.7337 7.5125 12.8641 7.5125 13C7.5125 13.1359 7.4585 13.2663 7.36239 13.3624C7.26628 13.4585 7.13592 13.5125 7 13.5125C5.27278 13.5125 3.6163 12.8264 2.39497 11.605C1.17364 10.3837 0.4875 8.72722 0.4875 7C0.4875 5.27278 1.17364 3.6163 2.39497 2.39497C3.6163 1.17364 5.27278 0.4875 7 0.4875Z" fill="#842A3A" stroke="#FDF2DB" stroke-width="0.1"/>
<path d="M11.1121 9.61215L11.1121 9.61213L11.1109 9.61342C11.064 9.66377 11.0074 9.70416 10.9446 9.73217C10.8817 9.76018 10.8138 9.77525 10.745 9.77646C10.6762 9.77767 10.6078 9.76502 10.544 9.73924C10.4802 9.71346 10.4222 9.6751 10.3736 9.62643C10.3249 9.57776 10.2865 9.51979 10.2608 9.45598C10.235 9.39217 10.2223 9.32381 10.2235 9.255C10.2248 9.18618 10.2398 9.11832 10.2678 9.05545C10.2958 8.99259 10.3362 8.93601 10.3866 8.88909L10.3866 8.88911L10.3879 8.88786L11.6779 7.59786L11.7632 7.51251H11.6425H5.5C5.36408 7.51251 5.23372 7.45851 5.13761 7.3624C5.0415 7.26629 4.9875 7.13593 4.9875 7.00001C4.9875 6.86408 5.0415 6.73373 5.13761 6.63762C5.23372 6.5415 5.36408 6.48751 5.5 6.48751H11.6425H11.7632L11.6779 6.40215L10.3885 5.11279C10.2983 5.01571 10.2493 4.88748 10.2516 4.755C10.254 4.62223 10.3077 4.49555 10.4016 4.40165C10.4955 4.30775 10.6222 4.25396 10.755 4.25162C10.8875 4.24928 11.0157 4.29835 11.1128 4.3885L13.3621 6.63784C13.4581 6.73393 13.512 6.86419 13.512 7.00001C13.512 7.13582 13.4581 7.26608 13.3621 7.36217L11.1121 9.61215Z" fill="#842A3A" stroke="#FDF2DB" stroke-width="0.1"/>
</svg>
